name C:\Users\Nicos\Documents\OpenSimProjects\Pred_Sim_Sprinting\Pred_Sim_Sprinting\MainFunctions\ExperimentalData\IK_Splined\Splined_50_meshInts_p02_maxVel_01.mot
datacolumns 38
datarows 13
range 0.05600000 0.06971429
endheader
                time	/jointset/ground_pelvis/pelvis_tilt/value	/jointset/ground_pelvis/pelvis_list/value	/jointset/ground_pelvis/pelvis_rotation/value	/jointset/ground_pelvis/pelvis_tx/value	/jointset/ground_pelvis/pelvis_ty/value	/jointset/ground_pelvis/pelvis_tz/value	/jointset/hip_r/hip_flexion_r/value	/jointset/hip_r/hip_adduction_r/value	/jointset/hip_r/hip_rotation_r/value	/jointset/knee_r/knee_angle_r/value	/jointset/ankle_r/ankle_angle_r/value	/jointset/subtalar_r/subtalar_angle_r/value	/jointset/mtp_r/mtp_angle_r/value	/jointset/hip_l/hip_flexion_l/value	/jointset/hip_l/hip_adduction_l/value	/jointset/hip_l/hip_rotation_l/value	/jointset/knee_l/knee_angle_l/value	/jointset/ankle_l/ankle_angle_l/value	/jointset/subtalar_l/subtalar_angle_l/value	/jointset/mtp_l/mtp_angle_l/value	/jointset/back/lumbar_extension/value	/jointset/back/lumbar_bending/value	/jointset/back/lumbar_rotation/value	/jointset/acromial_r/arm_flex_r/value	/jointset/acromial_r/arm_add_r/value	/jointset/acromial_r/arm_rot_r/value	/jointset/elbow_r/elbow_flex_r/value	/jointset/radioulnar_r/pro_sup_r/value	/jointset/radius_hand_r/wrist_flex_r/value	/jointset/radius_hand_r/wrist_dev_r/value	/jointset/acromial_l/arm_flex_l/value	/jointset/acromial_l/arm_add_l/value	/jointset/acromial_l/arm_rot_l/value	/jointset/elbow_l/elbow_flex_l/value	/jointset/radioulnar_l/pro_sup_l/value	/jointset/radius_hand_l/wrist_flex_l/value	/jointset/radius_hand_l/wrist_dev_l/value	
          0.05600000	          4.99930159	         -1.46373305	         -0.25776319	         -1.87121466	          1.00263233	          0.28681654	         29.24026972	         -0.78652057	         -2.37914183	        -32.26936812	        -11.66866834	        -12.48869523	          3.45205773	         19.23433415	         -1.10140012	        -11.55804968	       -133.53295380	        -15.01130516	        -13.52683631	         11.45083895	        -26.72652122	          7.05731329	         -5.71782780	        -21.09382145	        -14.33369720	         -4.39168812	        101.58231768	         65.50953991	         -8.37888651	          6.78380357	        -15.45028272	        -14.55228340	         -2.22961543	         58.51448841	         69.95154621	         -3.37224652	         11.19789332	
          0.05669463	          5.14679957	         -1.48681002	         -0.53720191	         -1.86439405	          1.00237807	          0.28744578	         28.67397109	         -0.65727936	         -2.28998527	        -32.16703303	        -11.45746841	        -12.38092132	          3.28891489	         19.53547038	         -1.33219306	        -11.79547356	       -133.85395008	        -14.79930857	        -13.36893567	         11.51562525	        -26.88161264	          6.87315006	         -5.67054841	        -20.26691745	        -14.33843637	         -3.61694808	        101.63623692	         65.63951682	         -8.45730556	          6.88731209	        -15.97095111	        -14.53478998	         -2.38374117	         58.06604320	         69.88516236	         -3.33667299	         11.35669171	
          0.05888937	          5.59943467	         -1.54754901	         -1.40297534	         -1.84281422	          1.00154070	          0.28940829	         26.90168804	         -0.27449196	         -2.02208732	        -31.87839400	        -10.66162260	        -12.02895626	          2.74587948	         20.50656977	         -2.04641351	        -12.53286567	       -134.85533229	        -14.14263375	        -12.89530170	         11.71226094	        -27.34409425	          6.28568583	         -5.54462370	        -17.65819861	        -14.33539944	         -1.18184415	        101.79332344	         66.02971249	         -8.70926293	          7.21778352	        -17.63003287	        -14.46139156	         -2.91748687	         56.66570434	         69.72125275	         -3.22048753	         11.86658050	
          0.06048000	          5.91157577	         -1.57658923	         -2.01266704	         -1.82714492	          1.00089235	          0.29080237	         25.63853601	         -0.02749912	         -1.84091926	        -31.71053734	         -9.94206746	        -11.76049432	          2.32359752	         21.23409169	         -2.54691804	        -13.05418623	       -135.56441572	        -13.68319049	        -12.58485719	         11.84548444	        -27.64694321	          5.85209578	         -5.47643811	        -15.77433491	        -14.31069103	          0.56240474	        101.89480923	         66.28586237	         -8.89651883	          7.46093817	        -18.84735160	        -14.38789171	         -3.35604414	         55.67304239	         69.65826107	         -3.13158455	         12.24514034	
          0.06057143	          5.92904095	         -1.57780024	         -2.04722472	         -1.82624347	          1.00085382	          0.29088170	         25.56658895	         -0.01421547	         -1.83083506	        -31.70213011	         -9.89660321	        -11.74466608	          2.29853523	         21.27662755	         -2.57518559	        -13.08379533	       -135.60464896	        -13.65729109	        -12.56804636	         11.85286878	        -27.66338843	          5.82691744	         -5.47312603	        -15.66629181	        -14.30857644	          0.66195056	        101.90033224	         66.29974615	         -8.90741598	          7.47501643	        -18.91773933	        -14.38307998	         -3.38273517	         55.61669598	         69.65633699	         -3.12633009	         12.26715850	
          0.06126606	          6.05988758	         -1.58520950	         -2.30797511	         -1.81939187	          1.00055617	          0.29148131	         25.02255724	          0.08316790	         -1.75538395	        -31.64306612	         -9.53561854	        -11.62287998	          2.10519830	         21.60258833	         -2.78802983	        -13.30743897	       -135.90824324	        -13.46252036	        -12.44441971	         11.90792258	        -27.78461676	          5.63459521	         -5.45015707	        -14.84643398	        -14.28978540	          1.41531196	        101.94120310	         66.40190094	         -8.99071456	          7.58235660	        -19.45406856	        -14.34428990	         -3.59113761	         55.19144224	         69.64833347	         -3.08584385	         12.43542172	
          0.06346080	          6.44965118	         -1.58541793	         -3.10986496	         -1.79770946	          0.99955211	          0.29333765	         23.33729605	          0.34543900	         -1.53042303	        -31.51818815	         -8.19970375	        -11.21854464	          1.45856690	         22.66850922	         -3.43622464	        -13.99814706	       -136.84020973	        -12.87315142	        -12.10753951	         12.06854620	        -28.12018165	          5.01320536	         -5.40363477	        -12.26975257	        -14.19497201	          3.75557224	        102.05784817	         66.68098161	         -9.26027292	          7.92620316	        -21.16789321	        -14.19362761	         -4.31997232	         53.88532965	         69.70847314	         -2.95058370	         12.97934725	
          0.06505143	          6.70658537	         -1.56023995	         -3.66887583	         -1.78196172	          0.99875517	          0.29464308	         22.15293562	          0.48645253	         -1.37986658	        -31.49435832	         -7.02683266	        -10.90455336	          0.95388768	         23.48015478	         -3.88020414	        -14.48277662	       -137.48532481	        -12.47459747	        -11.92300952	         12.17073975	        -28.31235167	          4.54735328	         -5.39509568	        -10.41843216	        -14.08735225	          5.40511642	        102.13095874	         66.83470928	         -9.46230882	          8.18020776	        -22.42968698	        -14.05484415	         -4.92178913	         52.98071912	         69.84502338	         -2.84451499	         13.38639401	
          0.06514286	          6.72065129	         -1.55809455	         -3.70045079	         -1.78105573	          0.99870746	          0.29471705	         22.08589841	          0.49321277	         -1.37149705	        -31.49480969	         -6.95403915	        -10.88593763	          0.92399580	         23.52788799	         -3.90503559	        -14.51022957	       -137.52154111	        -12.45248332	        -11.91407624	         12.17622770	        -28.32200187	          4.52013666	         -5.39519318	        -10.31250657	        -14.08008401	          5.49854534	        102.13491247	         66.84217570	         -9.47409721	          8.19492951	        -22.50271452	        -14.04607981	         -4.95831517	         52.92991223	         69.85543195	         -2.83819489	         13.41012619	
          0.06583749	          6.82497938	         -1.53928330	         -3.93852180	         -1.77416989	          0.99833810	          0.29527533	         21.58041000	          0.53974071	         -1.30874092	        -31.50474408	         -6.38256941	        -10.74249274	          0.69414011	         23.89445078	         -4.09129640	        -14.71746423	       -137.79345709	        -12.28735469	        -11.85233064	         12.21654412	        -28.39030665	          4.31174168	         -5.39766886	         -9.50966076	        -14.02092776	          6.20298857	        102.16428480	         66.89384910	         -9.56426113	          8.30717647	        -23.05918371	        -13.97674993	         -5.24245734	         52.54830068	         69.94372375	         -2.78936652	         13.59157034	
          0.06803223	          7.12454785	         -1.45025001	         -4.67196230	         -1.75238828	          0.99709022	          0.29699669	         20.02967116	          0.62987702	         -1.11745187	        -31.61212390	         -4.37341075	        -10.26599687	         -0.05830130	         25.09906808	         -4.65273614	        -15.35809114	       -138.61257841	        -11.79997052	        -11.73096112	         12.32783730	        -28.54715546	          3.63373375	         -5.42034198	         -6.99817416	        -13.78701374	          8.35947620	        102.25258338	         66.99573149	         -9.85579646	          8.66595047	        -24.83444901	        -13.72666892	         -6.21372278	         51.39601605	         70.33132882	         -2.62540835	         14.17729267	
          0.06962286	          7.31239727	         -1.35743077	         -5.18918293	         -1.73658511	          0.99610845	          0.29820484	         18.95237680	          0.64063082	         -0.98186307	        -31.76187162	         -2.74181344	         -9.89920247	         -0.61919708	         26.01733682	         -5.03538760	        -15.81078536	       -139.16486197	        -11.48016838	        -11.71575630	         12.39316324	        -28.60407597	          3.12311329	         -5.44284307	         -5.20601972	        -13.57150768	          9.84710136	        102.31697162	         67.00812808	        -10.07278299	          8.92901715	        -26.13395878	        -13.51749222	         -6.98125742	         50.61444499	         70.71626630	         -2.49715159	         14.61215085	
          0.06971429	          7.32244125	         -1.35139967	         -5.21863086	         -1.73567646	          0.99605011	          0.29827330	         18.89168254	          0.63987842	         -0.97408279	        -31.77224801	         -2.64415979	         -9.87762198	         -0.65155087	         26.07127598	         -5.05682193	        -15.83653838	       -139.19548237	        -11.46262654	        -11.71673315	         12.39652990	        -28.60590347	          3.09329121	         -5.44407927	         -5.10382073	        -13.55795311	          9.93048498	        102.32079058	         67.00725284	        -10.08537634	          8.94418660	        -26.20888087	        -13.50481464	         -7.02678508	         50.57090070	         70.74096005	         -2.48954288	         14.63735591	
